<svg width="49.897705" height="51.530823" viewBox="0 0 49.8977 51.5308" fill="none" xmlns="http://www.w3.org/2000/svg" xmlns:xlink="http://www.w3.org/1999/xlink">
	<desc>
			Created with Pixso.
	</desc>
	<g clip-path="url(#clip2_33)">
		<path d="M11.5918 15.0616C9.02979 15.2058 6.9834 12.7244 7.02759 10.1181C7.0686 7.70587 8.96167 5.31158 11.6316 5.37238C14.2344 5.43152 16.2385 7.52515 16.2 10.2489C16.1597 13.0771 14.021 15.2101 11.5918 15.0616Z" fill-rule="evenodd" fill="#00659B"/>
		<path d="M25.7246 6.10352e-05C28.1763 0.00952148 30.1067 2.11768 30.0898 4.76697C30.0732 7.34277 28.1064 9.39514 25.6597 9.38904C23.2637 9.38379 21.262 7.24792 21.2637 4.69879C21.2654 2.1076 23.2754 -0.00946045 25.7246 6.10352e-05L25.7246 6.10352e-05Z" fill-rule="evenodd" fill="#0099CC"/>
		<path d="M42.7693 10.2783C42.8098 12.9709 40.7605 14.8491 38.4521 14.8959C36.0193 14.945 34.0225 12.755 34.0339 10.1617C34.0444 7.67255 35.9998 5.57343 38.3123 5.56787C40.9128 5.56128 42.7627 7.51642 42.7693 10.2783L42.7693 10.2783Z" fill-rule="evenodd" fill="#0097FB"/>
		<path d="M45.4836 15.0859C47.8064 15.0975 49.8508 17.2241 49.7622 19.6713C49.6711 22.1757 48.0659 24.235 45.3975 24.2159C43.0042 24.1985 41.0977 22.1544 41.1675 19.6163C41.239 17.0135 43.0491 15.1411 45.4836 15.0859Z" fill-rule="evenodd" fill="#00CAFF"/>
		<path d="M45.4805 28.6089C47.9324 28.5878 49.7124 30.58 49.6641 33.0958C49.6157 35.59 47.9211 37.5466 45.4053 37.5258C43.1436 37.507 41.2817 35.6214 41.2712 33.1393C41.2603 30.4737 43.0989 28.5257 45.4805 28.6089Z" fill-rule="evenodd" fill="#FFCB00"/>
		<path d="M39.9172 39.0708C42.0203 38.981 43.5227 40.73 43.5447 42.7874C43.5684 45.0337 42.0476 46.6754 39.9868 46.6788C37.8477 46.683 36.3733 45.0474 36.3142 42.8124C36.2688 41.079 37.8591 38.852 39.9172 39.0708L39.9172 39.0708Z" fill-rule="evenodd" fill="#FF9700"/>
		<path d="M25.9473 47.6903C25.9465 45.5346 27.405 44.0477 29.4968 44.0702C31.3284 44.0905 32.8372 45.681 32.8235 47.6182C32.8079 49.8642 31.342 51.307 29.4858 51.3622C27.479 51.4214 25.8904 49.8439 25.9473 47.6903L25.9473 47.6903Z" fill-rule="evenodd" fill="#FD6800"/>
		<path d="M19.6641 51.0906C18.1782 51.2835 16.4409 49.4602 16.4478 47.7344C16.4553 45.9112 17.95 44.2668 19.6609 44.2491C21.4277 44.2314 22.8838 45.8237 22.8711 47.7225C22.8584 49.5657 21.4053 51.0916 19.6641 51.0906L19.6641 51.0906Z" fill-rule="evenodd" fill="#FF0000"/>
		<path d="M8.88892 42.8959C8.81128 41.0029 10.1616 39.9396 11.6797 39.9423C13.3555 39.9457 14.3862 41.371 14.4297 42.9393C14.4722 44.4869 13.0667 45.8647 11.5667 45.8277C10.0078 45.7889 8.87939 44.5535 8.88892 42.8959Z" fill-rule="evenodd" fill="#F02000"/>
		<path d="M33.6202 26.726L32.3938 26.726L32.3938 29.6404Q31.4983 30.2146 30.297 30.2146Q29.286 30.2146 28.4747 29.7684Q27.6634 29.3222 27.2015 28.5358Q26.7428 27.7495 26.7428 26.7759Q26.7428 25.793 27.2015 25.0067Q27.6634 24.2203 28.4747 23.7804Q29.286 23.3404 30.3094 23.3404Q31.8291 23.3404 32.9025 24.3732L33.695 23.5807Q33.0835 22.9035 32.2066 22.5541Q31.3329 22.2015 30.2595 22.2015Q28.8897 22.2015 27.7975 22.7912Q26.7054 23.3778 26.0844 24.4263Q25.4666 25.4747 25.4666 26.7759Q25.4666 28.0802 26.0844 29.1225Q26.7054 30.1647 27.7913 30.7607Q28.8772 31.3535 30.2314 31.3535Q31.1925 31.3535 32.0724 31.0602Q32.9555 30.7638 33.6202 30.2146L33.6202 26.726ZM8.42199 28.5015L10.3504 31.2505L11.7421 31.2505L9.62333 28.2456Q10.5688 27.9149 11.0774 27.1878Q11.5892 26.4577 11.5892 25.4217Q11.5892 23.9645 10.5906 23.1344Q9.59525 22.3044 7.8572 22.3044L4.36862 22.3044L4.36862 31.2505L5.64797 31.2505L5.64797 28.5296L7.8572 28.5296Q8.06314 28.5296 8.42199 28.5015ZM18.4187 22.3044L14.6492 22.3044L14.6492 31.2505L18.4187 31.2505Q19.8384 31.2505 20.9368 30.6889Q22.0383 30.1272 22.6436 29.11Q23.2521 28.0927 23.2521 26.7759Q23.2521 25.4622 22.6436 24.445Q22.0383 23.4278 20.9368 22.8661Q19.8384 22.3044 18.4187 22.3044ZM9.67326 26.9195Q9.03358 27.4406 7.81975 27.4406L5.64797 27.4406L5.64797 23.4153L7.81975 23.4153Q9.03358 23.4153 9.67326 23.9333Q10.3129 24.4512 10.3129 25.4217Q10.3129 26.3952 9.67326 26.9195ZM20.2534 29.7184Q19.4297 30.1397 18.3438 30.1397L15.9286 30.1397L15.9286 23.4153L18.3438 23.4153Q19.4297 23.4153 20.2534 23.8365Q21.0772 24.2578 21.5234 25.0192Q21.9728 25.7805 21.9728 26.7759Q21.9728 27.7744 21.5234 28.5358Q21.0772 29.2941 20.2534 29.7184Z" fill="#0F0D13" fill-opacity="0.768750"/>
	</g>
	<defs>
		<clipPath id="clip2_33">
			<rect width="49.897648" height="51.530815" fill="white"/>
		</clipPath>
	</defs>
</svg>
